<?xml version="1.0" encoding="UTF-8"?>
<svg id="Capa_1" data-name="Capa 1" xmlns="http://www.w3.org/2000/svg" viewBox="0 0 9.85 13.33">
  <defs>
    <style>
      .cls-1 {
        fill: #1555f2;
      }

      .cls-2 {
        fill: #f7941d;
      }
    </style>
  </defs>
  <path class="cls-2" d="M.96,11.41c-.53,0-.96.43-.96.96s.43.96.96.96.96-.43.96-.96-.43-.96-.96-.96Z"/>
  <path class="cls-1" d="M8.92,0c-.51,0-.93.42-.93.93v6.13c-.23,1.06-.98,1.59-2.01,1.59-1.13,0-1.78-.66-1.78-2.04v-3.22c0-.49-.4-.89-.89-.89s-.89.4-.89.89v3.46c0,2.3,1.33,3.37,3.28,3.37.9,0,1.73-.11,2.3-.67h0c0,1.14-.92,2.07-2.06,2.07h-2.74c-.43,0-.78.35-.78.78s.35.78.78.78h2.85c2.07,0,3.75-1.65,3.8-3.7h0V.93c0-.51-.42-.93-.93-.93Z"/>
</svg>