<svg width="208" height="208" viewBox="0 0 208 208" fill="none" xmlns="http://www.w3.org/2000/svg">
<path d="M39.1212 94.3648C39.1212 94.3648 67.9225 93.2115 74.1464 45.8684C79.6735 3.82315 128.24 22.9606 142.279 39.7208C160.465 61.4323 150.77 98.7806 174.296 103.499C197.822 108.217 182.459 160.675 146.748 155.654C102.325 149.407 113.073 175.366 99.7376 186.353C90.167 194.238 50.924 186.648 49.6161 158.023C48.5154 133.935 38.3548 134.012 31.153 131.28C20.7662 127.341 14.2213 98.8129 39.1212 94.3648Z" fill="#E4E7EC"/>
<path d="M137.029 146.942L108.733 118.982L103.13 124.652L131.426 152.613L137.029 146.942Z" fill="#D0D5DD"/>
<path d="M147.838 154.455L125.824 132.702C125.701 132.581 125.504 132.582 125.383 132.705L117.05 141.137C116.929 141.26 116.93 141.457 117.053 141.578L139.067 163.332C139.19 163.453 139.388 163.452 139.509 163.329L147.841 154.897C147.962 154.774 147.961 154.576 147.838 154.455Z" fill="#A6ACB6"/>
<path d="M83.6537 133.044C103.121 133.044 118.902 117.263 118.902 97.7956C118.902 78.3285 103.121 62.5474 83.6537 62.5474C64.1867 62.5474 48.4055 78.3285 48.4055 97.7956C48.4055 117.263 64.1867 133.044 83.6537 133.044Z" fill="#F2F4F7"/>
<path d="M83.6538 127.293C99.9444 127.293 113.151 114.086 113.151 97.7959C113.151 81.5052 99.9444 68.2991 83.6538 68.2991C67.3631 68.2991 54.157 81.5052 54.157 97.7959C54.157 114.086 67.3631 127.293 83.6538 127.293Z" fill="#344054" fill-opacity="0.4"/>
<path d="M143.245 65.9309C134.977 63.251 126.042 67.7836 123.351 76.0856C120.671 84.3536 125.203 93.2888 133.506 95.9796C141.808 98.6703 150.72 94.0933 153.4 85.8249C156.081 77.5565 151.513 68.6108 143.245 65.9309ZM140.75 73.628C141.676 73.928 142.491 74.4961 143.093 75.2602C143.695 76.0243 144.057 76.9501 144.132 77.92C144.208 78.8899 143.993 79.8604 143.516 80.7083C143.039 81.5561 142.321 82.2432 141.453 82.6824C140.585 83.1215 139.606 83.293 138.64 83.175C137.674 83.057 136.765 82.6548 136.029 82.0195C135.292 81.3843 134.76 80.5445 134.501 79.6067C134.243 78.6689 134.268 77.6753 134.575 76.752C135.403 74.1976 138.195 72.8 140.75 73.628ZM134.508 92.8873C131.761 92.0015 129.407 90.1883 127.85 87.7581C130.764 86.1026 133.811 85.6414 136.567 86.5348C139.323 87.4282 141.564 89.5659 142.908 92.6387C140.222 93.6934 137.252 93.7813 134.508 92.8873Z" fill="#344054" fill-opacity="0.4"/>
<path d="M74.4277 141.274C72.9916 142.007 71.8051 143.149 71.0183 144.557C70.2314 145.964 69.8796 147.573 70.0073 149.18C70.135 150.788 70.7364 152.321 71.7355 153.587C72.7347 154.852 74.0866 155.793 75.6205 156.29C77.1543 156.787 78.8011 156.818 80.3526 156.38C81.9042 155.941 83.2907 155.052 84.337 153.825C85.3833 152.598 86.0422 151.089 86.2306 149.487C86.4189 147.886 86.1282 146.265 85.3951 144.828C84.4104 142.904 82.7026 141.45 80.6465 140.783C78.5904 140.117 76.3539 140.293 74.4277 141.274ZM76.3265 144.994C76.7738 144.765 77.2788 144.675 77.7776 144.734C78.2763 144.793 78.7462 144.999 79.1277 145.326C79.5092 145.652 79.7852 146.085 79.9205 146.568C80.0559 147.052 80.0445 147.565 79.8879 148.042C79.7313 148.519 79.4365 148.939 79.041 149.248C78.6454 149.558 78.1668 149.743 77.666 149.78C77.1651 149.817 76.6646 149.704 76.2278 149.456C75.7911 149.208 75.4378 148.836 75.2128 148.387C74.9146 147.789 74.8643 147.097 75.0727 146.462C75.2812 145.826 75.7317 145.299 76.3265 144.993V144.994ZM81.0776 154.302C79.7517 154.981 78.2309 155.178 76.7756 154.859C77.2348 153.192 78.1785 151.911 79.5108 151.231C80.8431 150.551 82.4411 150.514 84.0532 151.145C83.4575 152.51 82.4055 153.626 81.0776 154.301V154.302Z" fill="#344054" fill-opacity="0.4"/>
</svg>
