<?xml version="1.0" encoding="UTF-8"?>
<svg xmlns="http://www.w3.org/2000/svg" viewBox="0 0 1110.65 421.83">
  <defs>
    <style>
      .cls-1 {
        fill: #fdbb27;
      }

      .cls-2 {
        fill: #1555f2;
      }

      .cls-3 {
        fill: #f7941d;
      }
    </style>
  </defs>
  <g id="Layer_1" data-name="Layer 1">
    <path class="cls-3" d="M29.02,363.79h0c-16.03,0-29.02,12.99-29.02,29.02s12.99,29.02,29.02,29.02h0c16.03,0,29.02-12.99,29.02-29.02s-12.99-29.02-29.02-29.02Z"/>
  </g>
  <g id="Layer_3" data-name="Layer 3">
    <circle class="cls-1" cx="909.67" cy="39.89" r="29.02"/>
  </g>
  <g id="Layer_2" data-name="Layer 2">
    <path class="cls-2" d="M427.88,87.3c-28.21,0-55.67,5.48-78.04,16.43-11.32,5.54-15.66,19.46-9.69,30.55h0c5.62,10.44,18.45,14.74,29.14,9.6,15.43-7.42,33.98-11.64,52.11-11.64,38.46,0,57.48,18.58,57.48,50.13v3.46h-59.64c-70.01,0-95.95,30.25-95.95,68.72s33.28,69.15,86.01,69.15c34.57,0,59.64-11.24,72.61-31.12v2.59c0,14.08,11.42,25.5,25.5,25.5s25.5-11.42,25.5-25.5v-109.77c0-66.56-38.46-98.11-105.02-98.11ZM478.88,248.5c-9.08,23.77-31.98,35.87-58.35,35.87-27.66,0-44.08-12.54-44.08-31.98,0-16.85,9.94-30.68,46.68-30.68h55.75v26.79Z"/>
  </g>
  <g id="Layer_4" data-name="Layer 4">
    <path class="cls-2" d="M1109.2,45.6c-.09-15.85-13.29-28.57-29.27-27.91-15.22.63-26.99,13.67-26.9,28.9l1.04,185.02c-6.65,32.06-29.39,48.39-60.66,48.57-34.14.19-54.13-19.58-54.37-61.5l-.54-95.46c-.08-14.92-12.24-26.94-27.16-26.86h0c-14.92.08-26.94,12.24-26.86,27.16l.58,102.8c.39,69.58,40.77,101.77,99.97,101.44,27.27-.15,52.25-3.74,69.47-20.59v.09c.19,34.53-27.64,62.67-62.16,62.86l-24,.13v-.16h-59.56c-13.13,0-23.77,10.64-23.77,23.77s10.64,24.07,23.77,24.07h59.56v-.14l27.54-.15c62.63-.35,113.2-50.53,114.62-112.73h.17s-1.46-259.31-1.46-259.31Z"/>
  </g>
  <g id="Layer_5" data-name="Layer 5">
    <path class="cls-2" d="M270.32,18.15h0c-15.51,0-28.09,12.58-28.09,28.09v185.69c-6.83,32.03-29.67,48.23-60.94,48.23-34.14,0-54.02-19.88-54.02-61.8v-97.46c0-14.92-12.09-27.01-27.01-27.01h0c-14.92,0-27.01,12.09-27.01,27.01v104.8c0,69.58,40.19,101.99,99.4,101.99,27.26,0,52.26-3.45,69.58-20.19v.08c0,34.52-27.99,62.51-62.51,62.51h-83.07c-13.13,0-23.77,10.64-23.77,23.77h0c0,13.13,10.64,23.77,23.77,23.77h86.34c62.62,0,113.48-49.9,115.25-112.1h.17V46.24c0-15.51-12.58-28.09-28.09-28.09Z"/>
  </g>
  <g id="Layer_6" data-name="Layer 6">
    <path class="cls-2" d="M849.58,290.58c-3.88-9.87-14.45-15.57-24.74-13.01-4.39,1.09-9.02,1.62-13.73,1.62-20.74,0-31.98-12.1-31.98-34.57v-109.77h40.19c11.93,0,21.61-9.67,21.61-21.61s-9.67-21.61-21.61-21.61h-40.19v-25.72c0-14.92-12.09-27.01-27.01-27.01h0c-14.92,0-27.01,12.09-27.01,27.01v25.72h-16.42c-11.93,0-21.61,9.67-21.61,21.61s9.67,21.61,21.61,21.61h16.42v111.07c0,51,28.95,77.79,79.52,77.79,11.07,0,22.14-1.68,32.01-5.04,11.53-3.92,17.4-16.75,12.94-28.08h0Z"/>
  </g>
  <g id="Layer_7" data-name="Layer 7">
    <rect class="cls-2" x="581.63" y="0" width="54.02" height="320.67" rx="27.01" ry="27.01"/>
  </g>
</svg>